<svg xmlns="http://www.w3.org/2000/svg" viewBox="0 0 120 120" fill="none">
  <!-- 背景円 -->
  <circle cx="60" cy="60" r="56" fill="#FFF7ED" />
  <!-- 耳 -->
  <path d="M26 38 Q18 8 42 26" fill="#FED7AA" stroke="#7C4A1E" stroke-width="2" />
  <path d="M94 38 Q102 8 78 26" fill="#FED7AA" stroke="#7C4A1E" stroke-width="2" />
  <path d="M28 34 Q22 14 40 28" fill="#FB923C" opacity="0.5" />
  <path d="M92 34 Q98 14 80 28" fill="#FB923C" opacity="0.5" />
  <!-- 顔 -->
  <ellipse cx="60" cy="62" rx="34" ry="30" fill="#FED7AA" stroke="#7C4A1E" stroke-width="2.5" />
  <!-- 白い部分 -->
  <ellipse cx="60" cy="72" rx="20" ry="15" fill="#FFF8F0" />
  <!-- 縞模様 -->
  <path d="M50 36 Q54 28 58 36" stroke="#EA580C" stroke-width="2.2" fill="none" opacity="0.5" />
  <path d="M62 36 Q66 28 70 36" stroke="#EA580C" stroke-width="2.2" fill="none" opacity="0.5" />
  <path d="M56 32 Q60 24 64 32" stroke="#EA580C" stroke-width="2.2" fill="none" opacity="0.5" />
  <!-- 目 -->
  <ellipse cx="46" cy="56" rx="7.5" ry="8.5" fill="white" stroke="#7C4A1E" stroke-width="1.5" />
  <ellipse cx="74" cy="56" rx="7.5" ry="8.5" fill="white" stroke="#7C4A1E" stroke-width="1.5" />
  <ellipse cx="47" cy="57" rx="5.5" ry="6.5" fill="#F59E0B" />
  <ellipse cx="75" cy="57" rx="5.5" ry="6.5" fill="#F59E0B" />
  <ellipse cx="47" cy="57" rx="4" ry="5" fill="#B45309" />
  <ellipse cx="75" cy="57" rx="4" ry="5" fill="#B45309" />
  <ellipse cx="49.5" cy="54" rx="2.2" ry="2.5" fill="white" />
  <ellipse cx="77.5" cy="54" rx="2.2" ry="2.5" fill="white" />
  <ellipse cx="46" cy="58.5" rx="1.2" ry="1.2" fill="white" opacity="0.7" />
  <ellipse cx="74" cy="58.5" rx="1.2" ry="1.2" fill="white" opacity="0.7" />
  <!-- キラキラ -->
  <path d="M85 40 L87 36 L89 40 L93 42 L89 44 L87 48 L85 44 L81 42 Z" fill="#FCD34D" opacity="0.6" />
  <!-- 鼻 -->
  <path d="M58 66 L60 68 L62 66 Z" fill="#EA580C" stroke="#7C4A1E" stroke-width="0.8" />
  <!-- 口 -->
  <path d="M60 68 L60 71" stroke="#7C4A1E" stroke-width="1.2" />
  <path d="M52 71 Q56 76 60 72 Q64 76 68 71" stroke="#7C4A1E" stroke-width="1.5" fill="none" stroke-linecap="round" />
  <!-- ほっぺ -->
  <circle cx="36" cy="66" r="7" fill="#FB923C" opacity="0.25" />
  <circle cx="84" cy="66" r="7" fill="#FB923C" opacity="0.25" />
  <!-- ひげ -->
  <path d="M18 57 Q33 56 40 61" stroke="#7C4A1E" stroke-width="1.2" opacity="0.5" stroke-linecap="round" />
  <path d="M17 65 Q33 65 40 65" stroke="#7C4A1E" stroke-width="1.2" opacity="0.5" stroke-linecap="round" />
  <path d="M102 57 Q87 56 80 61" stroke="#7C4A1E" stroke-width="1.2" opacity="0.5" stroke-linecap="round" />
  <path d="M103 65 Q87 65 80 65" stroke="#7C4A1E" stroke-width="1.2" opacity="0.5" stroke-linecap="round" />
</svg>
