<svg xmlns="http://www.w3.org/2000/svg" viewBox="0 0 120 120" fill="none">
  <!-- 背景円 -->
  <circle cx="60" cy="60" r="56" fill="#EFF6FF" />
  <!-- 耳 -->
  <path d="M28 42 Q20 12 42 28" fill="#BFDBFE" stroke="#3B4F6B" stroke-width="2" />
  <path d="M92 42 Q100 12 78 28" fill="#BFDBFE" stroke="#3B4F6B" stroke-width="2" />
  <path d="M30 38 Q24 16 40 30" fill="#60A5FA" opacity="0.4" />
  <path d="M90 38 Q96 16 80 30" fill="#60A5FA" opacity="0.4" />
  <!-- 顔 -->
  <ellipse cx="60" cy="62" rx="34" ry="30" fill="#BFDBFE" stroke="#3B4F6B" stroke-width="2.5" />
  <!-- 白い部分 -->
  <ellipse cx="60" cy="72" rx="20" ry="15" fill="#EFF6FF" />
  <!-- 長毛のモフモフ -->
  <path d="M28 55 Q22 62 28 70" stroke="#93C5FD" stroke-width="2" fill="none" opacity="0.5" />
  <path d="M25 58 Q20 64 26 68" stroke="#93C5FD" stroke-width="1.5" fill="none" opacity="0.4" />
  <path d="M92 55 Q98 62 92 70" stroke="#93C5FD" stroke-width="2" fill="none" opacity="0.5" />
  <path d="M95 58 Q100 64 94 68" stroke="#93C5FD" stroke-width="1.5" fill="none" opacity="0.4" />
  <!-- 目 -->
  <ellipse cx="46" cy="56" rx="7" ry="6" fill="white" stroke="#3B4F6B" stroke-width="1.5" />
  <ellipse cx="74" cy="56" rx="7" ry="6" fill="white" stroke="#3B4F6B" stroke-width="1.5" />
  <ellipse cx="47" cy="57" rx="5" ry="4.5" fill="#3B82F6" />
  <ellipse cx="75" cy="57" rx="5" ry="4.5" fill="#3B82F6" />
  <ellipse cx="47" cy="57" rx="3.5" ry="3.5" fill="#1E3A5F" />
  <ellipse cx="75" cy="57" rx="3.5" ry="3.5" fill="#1E3A5F" />
  <ellipse cx="49" cy="55.5" rx="1.8" ry="1.8" fill="white" />
  <ellipse cx="77" cy="55.5" rx="1.8" ry="1.8" fill="white" />
  <!-- まぶた -->
  <path d="M39 52 Q46 49 53 52" stroke="#BFDBFE" stroke-width="4" fill="#BFDBFE" />
  <path d="M67 52 Q74 49 81 52" stroke="#BFDBFE" stroke-width="4" fill="#BFDBFE" />
  <!-- 鼻 -->
  <path d="M58 66 L60 68 L62 66 Z" fill="#3B82F6" stroke="#3B4F6B" stroke-width="0.8" />
  <!-- 口 -->
  <path d="M60 68 L60 70" stroke="#3B4F6B" stroke-width="1.2" />
  <path d="M55 72 Q60 74 65 72" stroke="#3B4F6B" stroke-width="1.5" fill="none" stroke-linecap="round" />
  <!-- ほっぺ -->
  <circle cx="36" cy="66" r="6" fill="#60A5FA" opacity="0.18" />
  <circle cx="84" cy="66" r="6" fill="#60A5FA" opacity="0.18" />
  <!-- ひげ -->
  <path d="M20 60 Q33 59 40 62" stroke="#3B4F6B" stroke-width="1.2" opacity="0.4" stroke-linecap="round" />
  <path d="M19 67 Q33 67 40 66" stroke="#3B4F6B" stroke-width="1.2" opacity="0.4" stroke-linecap="round" />
  <path d="M100 60 Q87 59 80 62" stroke="#3B4F6B" stroke-width="1.2" opacity="0.4" stroke-linecap="round" />
  <path d="M101 67 Q87 67 80 66" stroke="#3B4F6B" stroke-width="1.2" opacity="0.4" stroke-linecap="round" />
</svg>
