<svg xmlns="http://www.w3.org/2000/svg" viewBox="0 0 120 120" fill="none">
  <!-- 背景円 -->
  <circle cx="60" cy="60" r="56" fill="#F0FDF4" />
  <!-- 耳 -->
  <path d="M26 40 Q16 10 44 28" fill="#BBF7D0" stroke="#3D5A3E" stroke-width="2" />
  <path d="M94 40 Q104 10 76 28" fill="#BBF7D0" stroke="#3D5A3E" stroke-width="2" />
  <path d="M28 36 Q22 14 42 30" fill="#4ADE80" opacity="0.4" />
  <path d="M92 36 Q98 14 78 30" fill="#4ADE80" opacity="0.4" />
  <!-- 顔 -->
  <ellipse cx="60" cy="62" rx="36" ry="32" fill="#BBF7D0" stroke="#3D5A3E" stroke-width="2.5" />
  <!-- 白い部分 -->
  <ellipse cx="60" cy="72" rx="22" ry="16" fill="#F0FFF4" />
  <!-- 虎柄 -->
  <path d="M48 34 Q52 26 56 34" stroke="#16A34A" stroke-width="2.5" fill="none" opacity="0.5" />
  <path d="M64 34 Q68 26 72 34" stroke="#16A34A" stroke-width="2.5" fill="none" opacity="0.5" />
  <path d="M56 30 Q60 22 64 30" stroke="#16A34A" stroke-width="2.5" fill="none" opacity="0.5" />
  <path d="M40 44 Q44 38 48 44" stroke="#16A34A" stroke-width="2" fill="none" opacity="0.35" />
  <path d="M72 44 Q76 38 80 44" stroke="#16A34A" stroke-width="2" fill="none" opacity="0.35" />
  <!-- 目 -->
  <ellipse cx="45" cy="56" rx="7.5" ry="8" fill="white" stroke="#3D5A3E" stroke-width="1.5" />
  <ellipse cx="75" cy="56" rx="7.5" ry="8" fill="white" stroke="#3D5A3E" stroke-width="1.5" />
  <ellipse cx="46" cy="57" rx="5.5" ry="6" fill="#22C55E" />
  <ellipse cx="76" cy="57" rx="5.5" ry="6" fill="#22C55E" />
  <ellipse cx="46" cy="57" rx="3.8" ry="4.5" fill="#14532D" />
  <ellipse cx="76" cy="57" rx="3.8" ry="4.5" fill="#14532D" />
  <ellipse cx="48.5" cy="54.5" rx="2" ry="2.2" fill="white" />
  <ellipse cx="78.5" cy="54.5" rx="2" ry="2.2" fill="white" />
  <ellipse cx="45" cy="58.5" rx="1" ry="1" fill="white" opacity="0.6" />
  <ellipse cx="75" cy="58.5" rx="1" ry="1" fill="white" opacity="0.6" />
  <!-- 鼻 -->
  <path d="M57 66 L60 69 L63 66 Z" fill="#15803D" stroke="#3D5A3E" stroke-width="0.8" />
  <!-- 口 -->
  <path d="M60 69 L60 72" stroke="#3D5A3E" stroke-width="1.3" />
  <path d="M53 73 Q60 78 67 73" stroke="#3D5A3E" stroke-width="1.5" fill="none" stroke-linecap="round" />
  <!-- ほっぺ -->
  <circle cx="34" cy="66" r="7.5" fill="#4ADE80" opacity="0.22" />
  <circle cx="86" cy="66" r="7.5" fill="#4ADE80" opacity="0.22" />
  <!-- ひげ -->
  <path d="M16 57 Q30 56 38 61" stroke="#3D5A3E" stroke-width="1.3" opacity="0.45" stroke-linecap="round" />
  <path d="M14 64 Q30 64 38 64" stroke="#3D5A3E" stroke-width="1.3" opacity="0.45" stroke-linecap="round" />
  <path d="M16 71 Q30 70 38 67" stroke="#3D5A3E" stroke-width="1.3" opacity="0.45" stroke-linecap="round" />
  <path d="M104 57 Q90 56 82 61" stroke="#3D5A3E" stroke-width="1.3" opacity="0.45" stroke-linecap="round" />
  <path d="M106 64 Q90 64 82 64" stroke="#3D5A3E" stroke-width="1.3" opacity="0.45" stroke-linecap="round" />
  <path d="M104 71 Q90 70 82 67" stroke="#3D5A3E" stroke-width="1.3" opacity="0.45" stroke-linecap="round" />
</svg>
